<svg width="939" height="551" viewBox="0 0 939 551" fill="none" xmlns="http://www.w3.org/2000/svg">
<g id="Group 33">
<g id="Path 6" filter="url(#filter0_d_0_2480)">
<path fill-rule="evenodd" clip-rule="evenodd" d="M31.0552 195.139C8.891 195.139 -2.21025 221.935 13.4603 237.61L92.6206 316.789C105.986 330.158 124.115 337.668 143.018 337.668H165.953C192.478 337.668 217.917 348.207 236.672 366.966L312.39 442.702C331.144 461.461 356.583 472 383.109 472H604.78C649.149 472 671.372 418.359 640.002 386.982L587.167 334.134C575.297 322.261 583.706 301.963 600.495 301.963C617.284 301.963 625.693 281.666 613.823 269.792L501.291 157.233C485.39 141.329 463.821 132.393 441.331 132.393H323.012C297.031 132.393 272.114 122.07 253.745 103.697L251.368 101.319C234.52 84.4675 211.668 75 187.839 75H55.941C24.5924 75 8.891 112.9 31.0552 135.07L48.6501 152.669C64.3206 168.343 53.2194 195.139 31.0552 195.139Z" fill="#2D314D"/>
</g>
<path id="Path 6 Copy" fill-rule="evenodd" clip-rule="evenodd" d="M245.055 196.139C222.891 196.139 211.79 222.935 227.46 238.61L306.621 317.789C319.986 331.158 338.115 338.668 357.018 338.668H379.953C406.478 338.668 431.917 349.207 450.672 367.966L526.39 443.702C545.144 462.461 570.583 473 597.109 473H818.78C863.149 473 885.372 419.359 854.002 387.982L801.167 335.134C789.297 323.261 797.706 302.963 814.495 302.963C831.284 302.963 839.693 282.666 827.823 270.792L715.291 158.233C699.39 142.329 677.821 133.393 655.331 133.393H537.012C511.031 133.393 486.114 123.07 467.745 104.697L465.368 102.319C448.52 85.4675 425.668 76 401.839 76H269.941C238.592 76 222.891 113.9 245.055 136.07L262.65 153.669C278.321 169.343 267.219 196.139 245.055 196.139Z" fill="url(#paint0_linear_0_2480)"/>
</g>
<defs>
<filter id="filter0_d_0_2480" x="-70.8745" y="0" width="802.56" height="551" filterUnits="userSpaceOnUse" color-interpolation-filters="sRGB">
<feFlood flood-opacity="0" result="BackgroundImageFix"/>
<feColorMatrix in="SourceAlpha" type="matrix" values="0 0 0 0 0 0 0 0 0 0 0 0 0 0 0 0 0 0 127 0" result="hardAlpha"/>
<feOffset dy="2"/>
<feGaussianBlur stdDeviation="38.5"/>
<feColorMatrix type="matrix" values="0 0 0 0 0 0 0 0 0 0 0 0 0 0 0 0 0 0 0.0240111 0"/>
<feBlend mode="normal" in2="BackgroundImageFix" result="effect1_dropShadow_0_2480"/>
<feBlend mode="normal" in="SourceGraphic" in2="effect1_dropShadow_0_2480" result="shape"/>
</filter>
<linearGradient id="paint0_linear_0_2480" x1="-190.418" y1="273.667" x2="135.527" y2="892.717" gradientUnits="userSpaceOnUse">
<stop stop-color="#33D35E"/>
<stop offset="1" stop-color="#2AB6D9"/>
</linearGradient>
</defs>
</svg>
